<svg xmlns="http://www.w3.org/2000/svg" viewBox="0 0 72 72"><g stroke-linejoin="round" stroke-miterlimit="10" stroke-width="2"><path fill="#a57939" stroke="#a57939" d="M52.738 53.134c-1.899 1.899-4.025 3.447-6.295 4.644l-2.312 1.073a26.24 26.24 0 0 1-9.784 1.899c-6.657 0-13.313-2.539-18.391-7.617C5.8 42.978 11.466 32.173 21.622 22.017c10.155-10.166 20.961-15.821 31.116-5.666 1.197 1.197 2.25 2.477 3.168 3.829 6.853 10.114 5.8 23.995-3.168 32.953z"/><path fill="#d0cfce" stroke="#d0cfce" d="M21.56 45.5c-2.768.292-4.541 1.454-6.018.458C8 40.875 31.625 12.292 42.75 14.458 38.032 15.953 17.832 28.326 21.56 45.5z"/><path stroke="#fff" d="M35.99 36.01c-4.03 4.03-8.34 7.03-12.04 8.63-.83.36-1.63.65-2.39.86C13.8 29.556 41.162 12.734 44.8 15.51c3.626 2.767-.72 12.41-8.81 20.5z" fill="#fff"/></g><path fill="#fff" d="M45.667 15.875c-1.771-1.771-5.11-2.033-9.042-.417M14.371 40.667c-.613 2.464-.395 4.478.807 5.68"/><path fill="#6a462f" d="M52.738 53.134c-5.078 5.078-11.734 7.617-18.391 7.617-2.645-.003 31.939-14.857 13.007-48.328 17.621 10.555 14.353 31.754 5.384 40.712z"/><g stroke-linejoin="round" stroke-miterlimit="10" stroke-width="2" fill="none" stroke="#000"><path d="M45.667 15.875c-1.771-1.771-5.11-2.033-9.042-.417M14.371 40.667c-.613 2.464-.395 4.478.807 5.68m30.488-30.489c1.143 1.143 1.408 2.015.834 4.392-.441 1.824.875 7.5-2.701 7.182-1.77-.157-2.413 5.715-3.674 7.318S38.079 34.421 36.5 36c-1.24 1.24-3.627 2.983-5.25 4.125-.529.372.044.75-.125 1.375-.332 1.23-5.961 3.944-7.797 4.716-1.304.548-3.101-.395-4.203-.216-1.953.316-2.955 1.338-3.947.346" stroke-linecap="round"/><path d="M52.738 53.134c-1.899 1.899-4.025 3.447-6.295 4.644l-2.312 1.073a26.24 26.24 0 0 1-9.784 1.899c-6.657 0-13.313-2.539-18.391-7.617C5.8 42.978 11.466 32.173 21.622 22.017c10.155-10.166 20.961-15.821 31.116-5.666 1.197 1.197 2.219 2.672 3.137 4.024 6.853 10.114 5.831 23.8-3.137 32.758z"/></g></svg>