<svg xmlns="http://www.w3.org/2000/svg" xmlns:xlink="http://www.w3.org/1999/xlink" viewBox="0 0 72 72"><circle cx="36.138" cy="35.763" r="25.013" fill="#5c9e31"/><use xlink:href="#B" fill="#b1cc33"/><g fill="none" stroke="#000" stroke-linejoin="round" stroke-width="2"><circle cx="36.138" cy="35.763" r="25.013"/><use xlink:href="#B" stroke-miterlimit="10"/></g><ellipse cx="24.191" cy="25.13" rx=".914" ry="1.827" transform="matrix(.6637 -.748 .748 .6637 -10.6616 26.5469)"/><ellipse cx="36.039" cy="19.052" rx=".914" ry="1.827"/><ellipse cx="48.069" cy="25.24" rx="1.827" ry=".914" transform="matrix(.7071 -.7071 .7071 .7071 -3.7684 41.3823)"/><ellipse cx="50.808" cy="38.101" rx=".914" ry="1.827" transform="matrix(.1109 -.9938 .9938 .1109 7.3099 84.3716)"/><ellipse cx="21.473" cy="37.99" rx="1.827" ry=".914"/><ellipse cx="29.379" cy="48.704" rx="1.827" ry=".914" transform="matrix(.5 -.866 .866 .5 -27.4894 49.7953)"/><ellipse cx="43.053" cy="48.737" rx=".914" ry="1.827" transform="matrix(.882 -.4712 .4712 .882 -17.8857 26.0367)"/><defs ><path id="B" d="M37.315 26.332l2.368-2.188a1.74 1.74 0 0 1 2.908 1.401l-.234 3.216c-.066.903.574 1.705 1.469 1.842l3.187.487a1.74 1.74 0 0 1 .718 3.147l-2.66 1.822c-.747.511-.975 1.511-.524 2.296l1.606 2.795a1.74 1.74 0 0 1-2.013 2.524l-3.083-.944c-.866-.265-1.79.18-2.122 1.022l-1.184 2.999a1.74 1.74 0 0 1-3.228 0l-1.184-2.999c-.332-.842-1.257-1.287-2.122-1.022l-3.083.944a1.74 1.74 0 0 1-2.013-2.524l1.607-2.795c.451-.785.223-1.785-.524-2.296l-2.66-1.822a1.74 1.74 0 0 1 .718-3.147l3.187-.487c.895-.137 1.534-.939 1.468-1.841l-.235-3.216a1.74 1.74 0 0 1 2.908-1.401l2.368 2.188c.665.614 1.691.614 2.356 0z"/></defs></svg>