<svg xmlns="http://www.w3.org/2000/svg" xmlns:xlink="http://www.w3.org/1999/xlink" viewBox="0 0 72 72"><use xlink:href="#B" fill="#fcea2b"/><g fill="#f4aa41"><path d="M50.556 50.012c-8.631 8.631-20.535 11.221-28.894 6.957 34.683 0 36.337-35.146 36.337-35.146 4.273 8.351 1.179 19.558-7.443 28.189z"/><path d="M30.454 59.988C27.178 59.988 20 57 20 57l-2.5-1.03h4.161c13.988 0 24.181-5.736 30.295-17.048 4.587-8.488 5.039-17.059 5.043-17.144l.177-3.755 1.713 3.346c4.464 8.723 1.471 20.245-7.626 29.351h0c-6 6-13.69 9.269-20.809 9.269zm-3.525-2.303c7.453 1.351 16.269-1.728 22.92-8.38 7.086-7.095 10.258-16.001 8.6-23.312-1.629 8.848-7.919 29.064-31.519 31.692z"/><path d="M56.961 14.901s1.826 4.823.967 7.234l-4.101-4.101 3.133-3.133m-40.792 42.22s5.054 1.028 7.296-.206l-4.706-3.389-2.59 3.596"/></g><g fill="none" stroke="#000" stroke-linecap="round" stroke-miterlimit="10" stroke-width="2"><use xlink:href="#B"/><use xlink:href="#B"/></g><defs ><path id="B" d="M16.03 55.937a5.48 5.48 0 0 1-1.018-6.081c-4.256-8.347-1.675-20.26 6.954-28.889s20.542-11.211 28.889-6.954a5.48 5.48 0 0 1 7.286 7.286c4.266 8.357 1.675 20.26-6.955 28.889s-20.532 11.221-28.889 6.954a5.48 5.48 0 0 1-6.175-1.11l-.092-.094"/></defs></svg>