<svg xmlns="http://www.w3.org/2000/svg" xmlns:xlink="http://www.w3.org/1999/xlink" viewBox="0 0 72 72"><circle cx="36" cy="39.073" r="21" fill="#f1b31c"/><circle cx="26" cy="46.346" r=".909"/><circle cx="26.909" cy="49.983" r=".909"/><circle cx="29.636" cy="47.255" r=".909"/><path fill="#e27022" d="M49.294 22.815a9.651 9.651 0 0 1-2.542 1.504 9.46 9.46 0 0 1-1.747.503 20.946 20.946 0 0 1-15.473 34.213 20.985 20.985 0 0 0 19.762-36.219z"/><use xlink:href="#B" fill="#b1cc33"/><g fill="none" stroke="#000" stroke-linejoin="round" stroke-width="2"><use xlink:href="#B"/><path d="M49.832 24.628a19.997 19.997 0 1 1-17.945-5.131m-.512-4.873s5.116 1.05 4.625 7.702" stroke-linecap="round"/></g><defs ><path id="B" d="M36 22.326a7.229 7.229 0 0 1 4.203.865c3.597 2.06 9.631.063 11.284-5.355a4.077 4.077 0 0 1-2.427-1.362c-2.48-2.987-10.247-3.211-13.06 5.852z"/></defs></svg>