<svg xmlns="http://www.w3.org/2000/svg" xmlns:xlink="http://www.w3.org/1999/xlink" viewBox="0 0 72 72"><use xlink:href="#B" fill="#b1cc33"/><g fill="#ea5a47"><path stroke="#ea5a47" stroke-linecap="round" stroke-linejoin="round" stroke-miterlimit="10" stroke-width="2" d="M52.572 54.127c-9.514 9.526-24.945 9.526-34.459 0-9.526-9.514-9.526-24.945 0-34.459l34.459 34.459"/><use xlink:href="#C"/></g><g stroke-linejoin="round" stroke-miterlimit="10" stroke-width="2" fill="none" stroke="#000"><use xlink:href="#B"/><g stroke-linecap="round"><path d="M17.516 19.071l36.207 36.207"/><use xlink:href="#C"/></g></g><ellipse cx="31.83" cy="46.907" rx="1.687" ry=".844" transform="matrix(.7071 -.7071 .7071 .7071 -23.8456 36.2461)"/><ellipse cx="44.554" cy="53.269" rx="1.687" ry=".844" transform="matrix(.7071 -.7071 .7071 .7071 -24.6174 47.1066)"/><ellipse cx="31.83" cy="54.86" rx="1.687" ry=".844" transform="matrix(.7071 -.7071 .7071 .7071 -29.4688 38.5753)"/><ellipse cx="25.817" cy="40.894" rx="1.687" ry=".844" transform="matrix(.7071 -.7071 .7071 .7071 -21.3547 30.2327)"/><ellipse cx="19.455" cy="28.17" rx="1.687" ry=".844" transform="matrix(.7071 -.7071 .7071 .7071 -14.2209 22.0073)"/><ellipse cx="17.864" cy="40.894" rx="1.687" ry=".844" transform="matrix(.7071 -.7071 .7071 .7071 -23.684 24.6094)"/><ellipse cx="22.281" cy="50.086" rx="1.687" ry=".844" transform="matrix(.7071 -.7071 .7071 .7071 -28.8903 30.4251)"/><defs ><path id="B" d="M55.226 56.781c-10.988 10.977-28.78 10.977-39.768 0-10.976-10.988-10.976-28.78 0-39.767l2.654 2.654c-9.526 9.515-9.526 24.945 0 34.459 9.515 9.526 24.945 9.526 34.459 0l2.654 2.654z"/><path id="C" d="M49.524 56.718c-9.52 6.837-22.857 5.973-31.412-2.592-8.62-8.61-9.44-22.063-2.459-31.594"/></defs></svg>